<?xml version="1.0" encoding="iso-8859-1"?>
<!-- Generator: Adobe Illustrator 19.0.0, SVG Export Plug-In . SVG Version: 6.00 Build 0)  -->
<svg xmlns="http://www.w3.org/2000/svg" xmlns:xlink="http://www.w3.org/1999/xlink" version="1.1" id="Capa_1" x="0px" y="0px" viewBox="0 0 60 60" style="enable-background:new 0 0 60 60;" xml:space="preserve" width="512px" height="512px">
<path d="M30,0C13.458,0,0,13.458,0,30s13.458,30,30,30s30-13.458,30-30S46.542,0,30,0z M36,48.894C36,50.606,34.606,52,32.893,52  c-0.547,0-1.09-0.149-1.571-0.432c-0.063-0.037-0.121-0.081-0.174-0.131L17.906,39.109C17.756,39.037,17.593,39,17.427,39H9.104  C7.392,39,6,37.607,6,35.896V23.104C6,21.393,7.392,20,9.104,20h8.324c0.166,0,0.329-0.037,0.479-0.109L31.148,7.563  c0.053-0.05,0.112-0.094,0.174-0.131C31.803,7.149,32.346,7,32.893,7C34.606,7,36,8.394,36,10.106V48.894z M39,39  c-0.256,0-0.512-0.098-0.707-0.293c-0.391-0.391-0.391-1.023,0-1.414c4.297-4.297,4.297-11.289,0-15.586  c-0.391-0.391-0.391-1.023,0-1.414s1.023-0.391,1.414,0c5.077,5.077,5.077,13.337,0,18.414C39.512,38.902,39.256,39,39,39z   M42.541,43.042c-0.256,0-0.512-0.098-0.707-0.293c-0.391-0.391-0.391-1.023,0-1.414c6.238-6.238,6.238-16.39,0-22.628  c-0.391-0.391-0.391-1.023,0-1.414s1.023-0.391,1.414,0c7.018,7.019,7.018,18.438,0,25.456  C43.052,42.944,42.796,43.042,42.541,43.042z M46.183,47.707C45.988,47.902,45.732,48,45.476,48s-0.512-0.098-0.707-0.293  c-0.391-0.391-0.391-1.023,0-1.414c4.356-4.355,6.755-10.142,6.755-16.293s-2.399-11.938-6.755-16.293  c-0.391-0.391-0.391-1.023,0-1.414s1.023-0.391,1.414,0c4.734,4.733,7.341,11.021,7.341,17.707S50.917,42.974,46.183,47.707z" fill="#FFFFFF"/>
<g>
</g>
<g>
</g>
<g>
</g>
<g>
</g>
<g>
</g>
<g>
</g>
<g>
</g>
<g>
</g>
<g>
</g>
<g>
</g>
<g>
</g>
<g>
</g>
<g>
</g>
<g>
</g>
<g>
</g>
</svg>
