<?xml version="1.0" encoding="iso-8859-1"?>
<!-- Generator: Adobe Illustrator 19.0.0, SVG Export Plug-In . SVG Version: 6.00 Build 0)  -->
<svg xmlns="http://www.w3.org/2000/svg" xmlns:xlink="http://www.w3.org/1999/xlink" version="1.1" id="Capa_1" x="0px" y="0px" viewBox="0 0 60 60" style="enable-background:new 0 0 60 60;" xml:space="preserve" width="512px" height="512px">
<path d="M30,0C13.458,0,0,13.458,0,30s13.458,30,30,30s30-13.458,30-30S46.542,0,30,0z M42,48.894C42,50.606,40.606,52,38.893,52  c-0.547,0-1.09-0.149-1.571-0.432c-0.063-0.037-0.121-0.081-0.174-0.131L23.906,39.109C23.756,39.037,23.593,39,23.427,39h-8.324  C13.392,39,12,37.607,12,35.896V23.104C12,21.393,13.392,20,15.104,20h8.324c0.166,0,0.329-0.037,0.479-0.109L37.148,7.563  c0.053-0.05,0.112-0.094,0.174-0.131C37.803,7.149,38.346,7,38.893,7C40.606,7,42,8.394,42,10.106V48.894z" fill="#FFFFFF"/>
<g>
</g>
<g>
</g>
<g>
</g>
<g>
</g>
<g>
</g>
<g>
</g>
<g>
</g>
<g>
</g>
<g>
</g>
<g>
</g>
<g>
</g>
<g>
</g>
<g>
</g>
<g>
</g>
<g>
</g>
</svg>
