<?xml version="1.0" encoding="iso-8859-1"?>
<!-- Generator: Adobe Illustrator 19.0.0, SVG Export Plug-In . SVG Version: 6.00 Build 0)  -->
<svg version="1.1" id="Capa_1" xmlns="http://www.w3.org/2000/svg" xmlns:xlink="http://www.w3.org/1999/xlink" x="0px" y="0px"
	 viewBox="0 0 58 58" style="enable-background:new 0 0 58 58;" xml:space="preserve">
<circle style="fill:#38454F;" cx="29" cy="29" r="29"/>
<path style="fill:#7383BF;" d="M18.427,20h-8.323C8.942,20,8,20.942,8,22.104v12.793C8,36.058,8.942,37,10.104,37h8.323
	c0.375,0,0.743,0.1,1.067,0.29L32.83,49.706C34.232,50.531,36,49.52,36,47.893V9.107c0-1.627-1.768-2.638-3.17-1.813L19.494,19.71
	C19.17,19.9,18.802,20,18.427,20z"/>
<path style="fill:#EFCE4A;" d="M40,38c-0.256,0-0.512-0.098-0.707-0.293c-0.391-0.391-0.391-1.023,0-1.414
	c4.297-4.297,4.297-11.289,0-15.586c-0.391-0.391-0.391-1.023,0-1.414s1.023-0.391,1.414,0c5.077,5.077,5.077,13.337,0,18.414
	C40.512,37.902,40.256,38,40,38z"/>
<g>
</g>
<g>
</g>
<g>
</g>
<g>
</g>
<g>
</g>
<g>
</g>
<g>
</g>
<g>
</g>
<g>
</g>
<g>
</g>
<g>
</g>
<g>
</g>
<g>
</g>
<g>
</g>
<g>
</g>
</svg>
